PathFileType	4	(X/Y/Z)	C:\Github\FootballMatch-and-Movement-Analysis\output\test4 Exam_2026-03-06_143128_tvc1_Sports2D\test4 Exam_2026-03-06_143128_tvc1_Sports2D_px_person00.trc
DataRate	CameraRate	NumFrames	NumMarkers	Units	OrigDataRate	OrigDataStartFrame	OrigNumFrames
30.0	30.0	8	22	m	30.0	200	320
Frame#	Time	Hip			RHip			RKnee			RAnkle			RBigToe			RSmallToe			RHeel			LHip			LKnee			LAnkle			LBigToe			LSmallToe			LHeel			Neck			Head			Nose			RShoulder			RElbow			RWrist			LShoulder			LElbow			LWrist			
		X1	Y1	Z1	X2	Y2	Z2	X3	Y3	Z3	X4	Y4	Z4	X5	Y5	Z5	X6	Y6	Z6	X7	Y7	Z7	X8	Y8	Z8	X9	Y9	Z9	X10	Y10	Z10	X11	Y11	Z11	X12	Y12	Z12	X13	Y13	Z13	X14	Y14	Z14	X15	Y15	Z15	X16	Y16	Z16	X17	Y17	Z17	X18	Y18	Z18	X19	Y19	Z19	X20	Y20	Z20	X21	Y21	Z21	X22	Y22	Z22
200	6.687565308254963	637.3711195565438	601.441876411677	0.0	615.4641847263281	609.7752642553421	0.0	632.1117618528106	793.025491602786	0.0	707.1643095306918	958.9336548948802	0.0	666.2822985726788	1035.0532094873404	0.0	665.5315752983802	1029.158458040626	0.0	745.2591348721587	975.7159566964617	0.0	658.0285412312063	597.4235763442077	0.0	560.8226709100461	758.1116322416203	0.0	714.8106890104771	808.5922283492835	0.0	672.7387064615114	1015.811912834082	0.0	698.465872859931	970.5408226170357	0.0	742.1056600647328	793.3645214979292	0.0	542.5103702432299	382.880819615224	0.0	459.33812619422605	291.612479874773	0.0	469.1402086947207	365.56517465521017	0.0	535.3847602356443	412.4596009243362	0.0	572.4143486763202	510.3699520402311	0.0	562.7984521073116	590.4309581633711	0.0	574.9167218862904	368.9122510554665	0.0	635.5770150424439	419.43280680984066	0.0	519.5477779859987	447.4068314437467	0.0
201	6.721003134796238	621.2533835131708	589.728097106572	0.0	597.3374803313087	597.3482688704128	0.0	598.1114541118516	774.5960957105887	0.0	674.5499082840693	945.51754548078	0.0	627.6648208938195	1016.3604616605933	0.0	631.2205003186045	1011.4821072029969	0.0	734.700203526901	963.3257254973715	0.0	640.8890890487503	585.5277163907743	0.0	557.0647161569664	753.9823147846837	0.0	710.7397131764778	799.7536885937485	0.0	630.2053514595948	1005.5153396055277	0.0	653.490279347315	991.425978056132	0.0	740.0156680773454	801.0578884287427	0.0	528.6051028333964	370.10671386720924	0.0	441.59589750913307	280.32507659550123	0.0	454.76822302115545	354.2839713963188	0.0	522.6013222064765	400.60901627624924	0.0	559.7333630545127	497.04327908795824	0.0	542.1097845310505	585.4650721520278	0.0	561.9007577216399	355.6420625670527	0.0	621.0791344765701	406.6658748809016	0.0	502.9369087314759	442.4751437885767	0.0
202	6.7544409613375125	604.8385871927209	585.0926057038613	0.0	579.2125124047708	592.2871783366281	0.0	564.848958295747	761.8663129947819	0.0	627.8470270368099	938.6039055080272	0.0	567.1156394791449	994.9893219205933	0.0	576.7456264853944	990.5851086160047	0.0	695.6566868481091	961.7711538449512	0.0	624.7312359929062	580.2236519580906	0.0	554.6328325393767	755.9459700623385	0.0	715.7087757031181	810.1303999307316	0.0	563.7955053849093	994.0950383685954	0.0	584.2187856758848	1000.7698917018239	0.0	742.1565846530007	807.2402725672337	0.0	512.7884438888331	361.21725922986855	0.0	424.0202950792944	275.3037202216671	0.0	439.738461999489	347.5362089820747	0.0	509.09060292107154	393.8534090604449	0.0	551.2026108374725	490.00323858402425	0.0	524.4396087376538	591.7338559020099	0.0	547.6321911897759	346.8688321304593	0.0	605.8284318534588	398.3003681174803	0.0	490.0560352644726	445.7674198592772	0.0
203	6.787878787878787	588.2443004640999	585.9251230373222	0.0	562.0147154574345	593.5347649040182	0.0	538.3517978557046	760.0623790914791	0.0	574.9845485078735	937.6762848622419	0.0	499.4195866690536	978.0054644995548	0.0	511.46395831557084	973.6378980672129	0.0	623.0250711041203	964.9060854754208	0.0	609.7301983338215	580.9694153796054	0.0	555.2042822340015	761.830380925973	0.0	727.1413263096059	818.4388686057208	0.0	484.4407217290691	980.544135084104	0.0	503.36039147129657	993.8799544492989	0.0	748.219939495978	809.3847435915724	0.0	497.2007423583553	356.99826258255473	0.0	408.11990496197336	276.3399712846031	0.0	424.89123517412037	346.22716272467534	0.0	495.7744776915258	390.45349364283453	0.0	545.2980770641179	486.60064366904476	0.0	518.7689323621082	597.0363878732223	0.0	532.5723614259128	343.45290591653054	0.0	591.3075690888604	393.73279327145264	0.0	481.01438776361584	454.1973778862626	0.0
204	6.821316614420062	572.0076593508426	591.18406976021	0.0	546.0506320090717	599.108703645154	0.0	518.6639380678722	767.1406414650938	0.0	525.437048941385	940.8191796790994	0.0	441.90475909378137	968.1838685244867	0.0	453.07721049894724	964.4255960713745	0.0	545.5469017872672	969.0643011134966	0.0	594.1188971504636	586.896597182461	0.0	558.6558040464968	770.6414986647061	0.0	736.7563904749617	821.5510710203098	0.0	411.8531843568164	969.7291711112182	0.0	431.37513844639574	976.476329172948	0.0	753.8245764413064	810.393031408815	0.0	484.3218379048983	358.3252216606986	0.0	392.8166119483176	282.2101101592552	0.0	410.4459812269115	350.95332329422973	0.0	483.7637764009485	389.9309490894205	0.0	539.7883490469766	484.6930173490184	0.0	514.4597966513531	597.5966182026671	0.0	517.7836839033475	345.3919561435822	0.0	578.2649147272061	394.3775675155229	0.0	475.4571397195506	466.99150905442536	0.0
205	6.854754440961337	555.7593583035631	601.14699753054	0.0	529.7108622986835	608.9453694043935	0.0	501.03138184517854	780.3485096155013	0.0	485.5453904221739	947.7104625254601	0.0	401.4874672338219	968.2520641350951	0.0	412.623548299026	965.3112884860152	0.0	492.5326089868492	976.2424495579937	0.0	576.9627198384519	597.1845220909399	0.0	559.0315419720473	782.597138700393	0.0	738.0545461339893	826.5072182761525	0.0	392.28964284628614	965.4154461551111	0.0	412.9735118030147	950.5461111384185	0.0	754.3631131232715	815.3570133510382	0.0	474.0191226930539	365.9853562670919	0.0	377.55964029442714	292.65439913947876	0.0	396.3335022082448	361.6428338017302	0.0	473.1223498022065	395.7839854289629	0.0	532.5171588576871	486.72585638817066	0.0	497.40561622930056	594.8573378262988	0.0	503.83047781472663	352.2401508334504	0.0	567.4011053431651	401.6661969653897	0.0	471.63393649828265	485.13208128694885	0.0
206	6.888192267502611	538.7021756687153	616.0089478438798	0.0	511.68087638301654	624.4869089388803	0.0	481.124715905255	797.9316114925997	0.0	457.3173254630866	960.3174176389829	0.0	374.2885760634871	981.0346449126899	0.0	387.30800409797183	977.1444659046458	0.0	466.49117229002775	988.9680123009122	0.0	559.7350055203627	611.7196901451116	0.0	550.3511569378657	798.8738533759462	0.0	729.8105510486702	836.996687104978	0.0	471.16639008317543	964.4526336507133	0.0	490.02424395896685	928.3021653600911	0.0	748.6153727238889	825.8087923571744	0.0	463.25236926399555	380.22050579214704	0.0	364.239086073648	308.238243024225	0.0	382.9544389863246	377.33605452818836	0.0	461.78772890308363	411.3026983985485	0.0	523.44246048431	495.4268661953947	0.0	470.32038937191135	589.6616568577044	0.0	489.96038329423993	364.65772410991303	0.0	558.6941981754031	416.1410989349674	0.0	467.02363135175875	509.2966558986179	0.0
207	6.921630094043886	521.6063401359135	634.9500880256734	0.0	493.2676540695856	645.0323922784261	0.0	457.3435076991889	815.2818935095077	0.0	439.3918113750625	977.7600067795006	0.0	355.490247912707	1002.9272065064736	0.0	370.07941320983184	996.710073921701	0.0	455.68171484133416	1005.5027514405651	0.0	544.0829443309466	630.5214479658868	0.0	533.6081971310623	819.6355739542535	0.0	714.7567579080221	850.1630448302988	0.0	608.1020466215678	963.2269791612894	0.0	622.9069724877527	925.5543917066977	0.0	737.8312506854726	838.1692640931242	0.0	449.7594236937394	399.9309929320765	0.0	353.8467704223252	327.5111281424942	0.0	370.46003808343846	396.33941895129857	0.0	447.41025500451667	433.2375850349889	0.0	513.049310701373	509.51334687462804	0.0	447.497950975757	587.8872344038386	0.0	475.6979061187493	384.1668467267537	0.0	551.428552499273	437.2257338376539	0.0	461.0137967533744	537.5337418808922	0.0
